# Blender 4.5.2 LTS
# www.blender.org
mtllib AxolotlLogo.mtl
o Od
v -0.245891 -0.239599 0.071142
v -0.384747 -0.264148 0.071142
v -0.557189 -0.177240 0.071142
v -0.411277 0.030436 0.071142
v 0.411418 0.030436 0.071142
v 0.557330 -0.177240 0.071142
v 0.385170 -0.264148 0.071142
v 0.246314 -0.239599 0.071142
v -0.245891 -0.239599 -0.128858
v -0.384747 -0.264148 -0.128858
v -0.557189 -0.177240 -0.128858
v -0.411277 0.030436 -0.128858
v 0.411418 0.030436 -0.128858
v 0.557330 -0.177240 -0.128858
v 0.385170 -0.264148 -0.128858
v 0.246314 -0.239599 -0.128858
v 0.411418 0.030436 -0.128858
v 0.411418 0.030436 0.071142
v 0.557330 -0.177240 -0.128858
v 0.557330 -0.177240 0.071142
v 0.385170 -0.264148 -0.128858
v 0.385170 -0.264148 0.071142
v 0.246314 -0.239599 -0.128858
v 0.246314 -0.239599 0.071142
v -0.245891 -0.239599 -0.128858
v -0.245891 -0.239599 0.071142
v -0.384747 -0.264148 -0.128858
v -0.384747 -0.264148 0.071142
v -0.557189 -0.177240 -0.128858
v -0.557189 -0.177240 0.071142
v -0.411277 0.030436 -0.128858
v -0.411277 0.030436 0.071142
v -0.760111 -0.469002 0.110371
v -0.990691 0.064014 0.110371
v -0.007691 0.752505 0.110371
v 0.991114 0.064014 0.110371
v 0.760534 -0.469002 0.110371
v 0.000211 -0.807322 0.110371
v -0.760111 -0.469002 -0.089629
v -0.990691 0.064014 -0.089629
v -0.007691 0.752505 -0.089629
v 0.991114 0.064014 -0.089629
v 0.760534 -0.469002 -0.089629
v 0.000211 -0.807322 -0.089629
v -0.760111 -0.469002 -0.089629
v -0.760111 -0.469002 0.110371
v -0.990691 0.064014 -0.089629
v -0.990691 0.064014 0.110371
v -0.007691 0.752505 -0.089629
v -0.007691 0.752505 0.110371
v 0.991114 0.064014 -0.089629
v 0.991114 0.064014 0.110371
v 0.760534 -0.469002 -0.089629
v 0.760534 -0.469002 0.110371
v 0.000211 -0.807322 -0.089629
v 0.000211 -0.807322 0.110371
v -0.760111 0.233315 0.105621
v -0.841675 0.175752 0.105621
v -1.348556 0.492910 0.105621
v -1.581394 1.052167 0.105621
v -1.048266 0.759277 0.105621
v -0.944970 -0.095694 0.105621
v -1.514224 -0.083560 0.105621
v -1.995141 0.334331 0.105621
v -1.372546 0.307807 0.105621
v -1.007343 0.062885 0.105621
v -0.819943 -0.386045 0.105621
v -1.182888 -0.657491 0.105621
v -1.787985 -0.575944 0.105621
v -1.310173 -0.268381 0.105621
v -0.868204 -0.268381 0.105621
v -0.760111 0.233315 -0.094379
v -0.841675 0.175752 -0.094379
v -1.348556 0.492910 -0.094379
v -1.581394 1.052167 -0.094379
v -1.048266 0.759277 -0.094379
v -0.944970 -0.095694 -0.094379
v -1.514224 -0.083560 -0.094379
v -1.995141 0.334331 -0.094379
v -1.372546 0.307807 -0.094379
v -1.007343 0.062885 -0.094379
v -0.819943 -0.386045 -0.094379
v -1.182888 -0.657491 -0.094379
v -1.787985 -0.575944 -0.094379
v -1.310173 -0.268381 -0.094379
v -0.868204 -0.268381 -0.094379
v -0.819943 -0.386045 -0.094379
v -0.819943 -0.386045 0.105621
v -1.182888 -0.657491 -0.094379
v -1.182888 -0.657491 0.105621
v -1.787985 -0.575944 -0.094379
v -1.787985 -0.575944 0.105621
v -1.310173 -0.268381 -0.094379
v -1.310173 -0.268381 0.105621
v -0.868204 -0.268381 -0.094379
v -0.868204 -0.268381 0.105621
v -0.760111 0.233315 -0.094379
v -0.760111 0.233315 0.105621
v -0.841675 0.175752 -0.094379
v -0.841675 0.175752 0.105621
v -1.348556 0.492910 -0.094379
v -1.348556 0.492910 0.105621
v -1.581394 1.052167 -0.094379
v -1.581394 1.052167 0.105621
v -1.048266 0.759277 -0.094379
v -1.048266 0.759277 0.105621
v -0.944970 -0.095694 -0.094379
v -0.944970 -0.095694 0.105621
v -1.514224 -0.083560 -0.094379
v -1.514224 -0.083560 0.105621
v -1.995141 0.334331 -0.094379
v -1.995141 0.334331 0.105621
v -1.372546 0.307807 -0.094379
v -1.372546 0.307807 0.105621
v -1.007343 0.062885 -0.094379
v -1.007343 0.062885 0.105621
v 1.048689 0.759277 0.105621
v 1.581817 1.052167 0.105621
v 1.348979 0.492910 0.105621
v 0.842098 0.175752 0.105621
v 0.760534 0.233315 0.105621
v 1.007765 0.062885 0.105621
v 1.372968 0.307807 0.105621
v 1.995563 0.334331 0.105621
v 1.514647 -0.083560 0.105621
v 0.945393 -0.095694 0.105621
v 0.868345 -0.268381 0.105621
v 1.310314 -0.268381 0.105621
v 1.788408 -0.575944 0.105621
v 1.183029 -0.657491 0.105621
v 0.820366 -0.386045 0.105621
v 1.048689 0.759277 -0.094379
v 1.581817 1.052167 -0.094379
v 1.348979 0.492910 -0.094379
v 0.842098 0.175752 -0.094379
v 0.760534 0.233315 -0.094379
v 1.007765 0.062885 -0.094379
v 1.372968 0.307807 -0.094379
v 1.995563 0.334331 -0.094379
v 1.514647 -0.083560 -0.094379
v 0.945393 -0.095694 -0.094379
v 0.868345 -0.268381 -0.094379
v 1.310314 -0.268381 -0.094379
v 1.788408 -0.575944 -0.094379
v 1.183029 -0.657491 -0.094379
v 0.820366 -0.386045 -0.094379
v 0.868345 -0.268381 -0.094379
v 0.868345 -0.268381 0.105621
v 1.310314 -0.268381 -0.094379
v 1.310314 -0.268381 0.105621
v 1.788408 -0.575944 -0.094379
v 1.788408 -0.575944 0.105621
v 1.183029 -0.657491 -0.094379
v 1.183029 -0.657491 0.105621
v 0.820366 -0.386045 -0.094379
v 0.820366 -0.386045 0.105621
v 1.048689 0.759277 -0.094379
v 1.048689 0.759277 0.105621
v 1.581817 1.052167 -0.094379
v 1.581817 1.052167 0.105621
v 1.348979 0.492910 -0.094379
v 1.348979 0.492910 0.105621
v 0.842098 0.175752 -0.094379
v 0.842098 0.175752 0.105621
v 0.760534 0.233315 -0.094379
v 0.760534 0.233315 0.105621
v 1.007765 0.062885 -0.094379
v 1.007765 0.062885 0.105621
v 1.372968 0.307807 -0.094379
v 1.372968 0.307807 0.105621
v 1.995563 0.334331 -0.094379
v 1.995563 0.334331 0.105621
v 1.514647 -0.083560 -0.094379
v 1.514647 -0.083560 0.105621
v 0.945393 -0.095694 -0.094379
v 0.945393 -0.095694 0.105621
vn -0.0000 -0.0000 1.0000
vn -0.0000 -0.0000 -1.0000
vn -0.0318 0.9995 -0.0000
vn 0.9700 -0.2430 -0.0000
vn 0.1457 -0.9893 -0.0000
vn -0.9116 -0.4110 -0.0000
vn 0.9118 -0.4106 -0.0000
vn -0.1454 -0.9894 -0.0000
vn -0.9700 -0.2433 -0.0000
vn 0.0315 0.9995 -0.0000
vn -0.7108 -0.7034 -0.0000
vn -0.9622 0.2723 -0.0000
vn -0.0037 1.0000 -0.0000
vn 0.9612 0.2759 -0.0000
vn 0.7108 -0.7034 -0.0000
vn -0.0000 -1.0000 -0.0000
vn 0.9638 -0.2664 -0.0000
vn 0.2514 -0.9679 -0.0000
vn -0.9761 -0.2172 -0.0000
vn -0.2821 0.9594 -0.0000
vn 0.5570 0.8305 -0.0000
vn 0.9742 -0.2256 -0.0000
vn 0.0277 -0.9996 -0.0000
vn -0.7628 -0.6466 -0.0000
vn -0.6680 0.7442 -0.0000
vn 0.7075 0.7067 -0.0000
vn 0.8204 -0.5718 -0.0000
vn -0.3601 -0.9329 -0.0000
vn -0.9290 0.3700 -0.0000
vn 0.3114 0.9503 -0.0000
vn 0.7792 0.6268 -0.0000
vn -0.5579 0.8299 -0.0000
vn 0.2820 0.9594 -0.0000
vn 0.9761 -0.2171 -0.0000
vn -0.2516 -0.9678 -0.0000
vn -0.9636 -0.2673 -0.0000
vn -0.7075 0.7067 -0.0000
vn 0.6680 0.7442 -0.0000
vn 0.7628 -0.6466 -0.0000
vn -0.0277 -0.9996 -0.0000
vn -0.9742 -0.2256 -0.0000
vn -0.7792 0.6268 -0.0000
vn -0.3114 0.9503 -0.0000
vn 0.9290 0.3700 -0.0000
vn 0.3601 -0.9329 -0.0000
vn -0.8204 -0.5718 -0.0000
vt 1.000000 0.000000
vt 0.714286 0.000000
vt 0.571429 0.000000
vt 0.857143 0.000000
vt 0.285714 0.000000
vt 0.000000 0.000000
vt 0.428571 0.000000
vt 0.142857 0.000000
vt 0.000000 1.000000
vt 0.250000 1.000000
vt 0.250000 0.000000
vt 0.500000 1.000000
vt 0.500000 0.000000
vt 0.750000 1.000000
vt 0.750000 0.000000
vt 1.000000 1.000000
vt 0.200000 0.000000
vt 0.600000 0.000000
vt 0.400000 0.000000
vt 0.800000 0.000000
vt 0.166667 1.000000
vt 0.166667 0.000000
vt 0.333333 1.000000
vt 0.333333 0.000000
vt 0.666667 1.000000
vt 0.666667 0.000000
vt 0.833333 1.000000
vt 0.833333 0.000000
vt 0.928571 0.000000
vt 0.785714 0.000000
vt 0.214286 0.000000
vt 0.071429 0.000000
vt 0.642857 0.000000
vt 0.357143 0.000000
vt 0.200000 1.000000
vt 0.400000 1.000000
vt 0.600000 1.000000
vt 0.800000 1.000000
s 0
usemtl Black
f 8/1/1 6/2/1 5/3/1
f 8/1/1 7/4/1 6/2/1
f 3/5/1 1/6/1 4/7/1
f 2/8/1 1/6/1 3/5/1
f 16/1/2 13/3/2 14/2/2
f 16/1/2 14/2/2 15/4/2
f 11/5/2 12/7/2 9/6/2
f 10/8/2 11/5/2 9/6/2
s 1
f 18/9/3 20/10/4 19/11/4 17/6/3
f 20/10/4 22/12/5 21/13/5 19/11/4
f 22/12/5 24/14/6 23/15/6 21/13/5
f 24/14/6 18/16/3 17/1/3 23/15/6
f 26/9/7 28/10/8 27/11/8 25/6/7
f 28/10/8 30/12/9 29/13/9 27/11/8
f 30/12/9 32/14/10 31/15/10 29/13/9
f 32/14/10 26/16/7 25/1/7 31/15/10
s 0
usemtl Material.001
f 34/17/1 36/18/1 35/19/1
f 33/6/1 36/18/1 34/17/1
f 33/6/1 37/20/1 36/18/1
f 38/1/1 37/20/1 33/6/1
f 40/17/2 41/19/2 42/18/2
f 39/6/2 40/17/2 42/18/2
f 39/6/2 42/18/2 43/20/2
f 44/1/2 39/6/2 43/20/2
s 1
f 46/9/11 48/21/12 47/22/12 45/6/11
f 48/21/12 50/23/13 49/24/13 47/22/12
f 50/23/13 52/12/14 51/13/14 49/24/13
f 52/12/14 54/25/15 53/26/15 51/13/14
f 54/25/15 56/27/16 55/28/16 53/26/15
f 56/27/16 46/16/11 45/1/11 55/28/16
s 0
usemtl Rose
f 69/4/1 71/1/1 70/29/1
f 69/4/1 67/2/1 71/1/1
f 69/4/1 68/30/1 67/2/1
f 59/8/1 61/5/1 60/31/1
f 59/8/1 57/6/1 61/5/1
f 58/32/1 57/6/1 59/8/1
f 63/7/1 65/3/1 64/13/1
f 63/7/1 66/33/1 65/3/1
f 63/7/1 62/34/1 66/33/1
f 84/4/2 85/29/2 86/1/2
f 84/4/2 86/1/2 82/2/2
f 84/4/2 82/2/2 83/30/2
f 74/8/2 75/31/2 76/5/2
f 74/8/2 76/5/2 72/6/2
f 73/32/2 74/8/2 72/6/2
f 78/7/2 79/13/2 80/3/2
f 78/7/2 80/3/2 81/33/2
f 78/7/2 81/33/2 77/34/2
s 1
f 88/9/17 90/35/18 89/17/18 87/6/17
f 90/35/18 92/36/19 91/19/19 89/17/18
f 92/36/19 94/37/20 93/18/20 91/19/19
f 94/37/20 96/38/21 95/20/21 93/18/20
f 96/38/21 88/16/17 87/1/17 95/20/21
f 98/9/22 100/35/23 99/17/23 97/6/22
f 100/35/23 102/36/24 101/19/24 99/17/23
f 102/36/24 104/37/25 103/18/25 101/19/24
f 104/37/25 106/38/26 105/20/26 103/18/25
f 106/38/26 98/16/22 97/1/22 105/20/26
f 108/9/27 110/35/28 109/17/28 107/6/27
f 110/35/28 112/36/29 111/19/29 109/17/28
f 112/36/29 114/37/30 113/18/30 111/19/29
f 114/37/30 116/38/31 115/20/31 113/18/30
f 116/38/31 108/16/27 107/1/27 115/20/31
s 0
f 131/1/1 128/30/1 127/2/1
f 131/1/1 129/4/1 128/30/1
f 130/29/1 129/4/1 131/1/1
f 117/6/1 119/8/1 118/32/1
f 121/5/1 119/8/1 117/6/1
f 121/5/1 120/31/1 119/8/1
f 123/7/1 125/3/1 124/13/1
f 122/34/1 125/3/1 123/7/1
f 126/33/1 125/3/1 122/34/1
f 146/1/2 142/2/2 143/30/2
f 146/1/2 143/30/2 144/4/2
f 145/29/2 146/1/2 144/4/2
f 132/6/2 133/32/2 134/8/2
f 136/5/2 132/6/2 134/8/2
f 136/5/2 134/8/2 135/31/2
f 138/7/2 139/13/2 140/3/2
f 137/34/2 138/7/2 140/3/2
f 141/33/2 137/34/2 140/3/2
s 1
f 148/9/32 150/35/33 149/17/33 147/6/32
f 150/35/33 152/36/34 151/19/34 149/17/33
f 152/36/34 154/37/35 153/18/35 151/19/34
f 154/37/35 156/38/36 155/20/36 153/18/35
f 156/38/36 148/16/32 147/1/32 155/20/36
f 158/9/37 160/35/38 159/17/38 157/6/37
f 160/35/38 162/36/39 161/19/39 159/17/38
f 162/36/39 164/37/40 163/18/40 161/19/39
f 164/37/40 166/38/41 165/20/41 163/18/40
f 166/38/41 158/16/37 157/1/37 165/20/41
f 168/9/42 170/35/43 169/17/43 167/6/42
f 170/35/43 172/36/44 171/19/44 169/17/43
f 172/36/44 174/37/45 173/18/45 171/19/44
f 174/37/45 176/38/46 175/20/46 173/18/45
f 176/38/46 168/16/42 167/1/42 175/20/46
